<svg xmlns="http://www.w3.org/2000/svg" viewBox="0 0 1440 320"><path fill="#0099ff" fill-opacity="1" d="M0,128L18.5,122.7C36.9,117,74,107,111,128C147.7,149,185,203,222,224C258.5,245,295,235,332,197.3C369.2,160,406,96,443,64C480,32,517,32,554,37.3C590.8,43,628,53,665,48C701.5,43,738,21,775,48C812.3,75,849,149,886,170.7C923.1,192,960,160,997,128C1033.8,96,1071,64,1108,96C1144.6,128,1182,224,1218,224C1255.4,224,1292,128,1329,96C1366.2,64,1403,96,1422,112L1440,128L1440,320L1421.5,320C1403.1,320,1366,320,1329,320C1292.3,320,1255,320,1218,320C1181.5,320,1145,320,1108,320C1070.8,320,1034,320,997,320C960,320,923,320,886,320C849.2,320,812,320,775,320C738.5,320,702,320,665,320C627.7,320,591,320,554,320C516.9,320,480,320,443,320C406.2,320,369,320,332,320C295.4,320,258,320,222,320C184.6,320,148,320,111,320C73.8,320,37,320,18,320L0,320Z"></path></svg>